<svg viewBox="0 0 24 24" fill="currentColor">
  <path d="M13.94,13.42l-4.33-1.11-.89,3.46,4.33,1.11c.48.12.93.06,1.35-.19.43-.25.7-.62.82-1.09s.06-.93-.19-1.35c-.25-.43-.62-.7-1.09-.82Z"/>
  <path d="M14.41,8.01l-3.46-.89-.89,3.46,3.46.89c.48.12.93.06,1.35-.19.43-.25.7-.62.82-1.09s.06-.93-.19-1.35c-.25-.43-.62-.7-1.09-.82Z"/>
  <path d="M14.99.38C8.57-1.27,2.03,2.59.38,9.01c-1.65,6.42,2.21,12.96,8.63,14.61,6.42,1.65,12.96-2.21,14.61-8.63,1.65-6.42-2.21-12.96-8.63-14.61ZM17.43,10.63c-.11.42-.28.8-.53,1.15-.24.35-.53.64-.87.87.43.43.73.95.91,1.55.18.6.18,1.22.02,1.85-.24.95-.79,1.68-1.65,2.18-.85.5-1.75.63-2.71.39l-.45,1.73-1.73-.45.45-1.73-1.73-.45-.45,1.73-1.73-.45.45-1.73-2.6-.67.45-1.73,1.73.45,2.23-8.65-1.73-.45.45-1.73,2.6.67.45-1.73,1.73.45-.45,1.73,1.73.45.45-1.73,1.73.45-.47,1.84c.7.39,1.21.96,1.55,1.7.33.74.4,1.51.19,2.32Z"/>
</svg>