<svg viewBox="0 0 24 24" fill="currentColor">
	<path class="cls-1" d="M11.99,1.5c.88,0,1.76.11,2.62.33,5.61,1.44,8.99,7.18,7.55,12.78-1.19,4.64-5.37,7.88-10.16,7.88-.88,0-1.76-.11-2.62-.33-2.72-.7-5-2.41-6.42-4.83-1.43-2.41-1.83-5.24-1.13-7.95C3.03,4.74,7.21,1.5,11.99,1.5M11.99,0C6.65,0,1.77,3.6.38,9.01c-1.65,6.42,2.21,12.96,8.63,14.61,1,.26,2.01.38,3,.38,5.34,0,10.22-3.6,11.61-9.01,1.65-6.42-2.21-12.96-8.63-14.61-1-.26-2.01-.38-3-.38h0Z"/>
	<path class="cls-1" d="M16.9,11.77c.24-.35.42-.73.53-1.15.21-.81.15-1.58-.19-2.32-.33-.74-.85-1.31-1.55-1.7l.47-1.84-1.73-.45-.45,1.73-1.73-.45.45-1.73-1.73-.45-.45,1.73-2.6-.67-.45,1.73,1.73.45-2.23,8.65-1.73-.45-.45,1.73,2.6.67-.45,1.73,1.73.45.45-1.73,1.73.45-.45,1.73,1.73.45.45-1.73c.95.24,1.85.12,2.71-.39s1.4-1.23,1.65-2.18c.16-.63.16-1.25-.02-1.85-.18-.6-.48-1.11-.91-1.55.34-.24.63-.53.87-.87ZM15.23,15.6c-.12.48-.4.84-.82,1.09s-.88.32-1.35.19l-4.33-1.11.89-3.46,4.33,1.11c.48.12.84.4,1.09.82.25.43.32.88.19,1.35ZM15.7,10.18c-.12.48-.4.84-.82,1.09-.43.25-.88.32-1.35.19l-3.46-.89.89-3.46,3.46.89c.48.12.84.4,1.09.82.25.43.32.88.19,1.35Z"/>
</svg>