<svg viewBox="0 0 24 24" fill="currentColor">
  <path d="M21.45,8.6c-.21-.44-.56-.67-1.05-.67h-3.38l.85-6.73c.03-.24-.02-.47-.15-.67-.13-.2-.31-.35-.53-.45-.23-.1-.45-.11-.68-.03-.23.08-.41.22-.57.42l-4.11,5.96h.38c1.07,0,1.94.55,2.41,1.52.47.98.34,2.01-.35,2.83l-2.3,2.79-.76,5.4c-.03.23.01.44.11.64.1.2.27.36.5.47s.46.14.69.09c.23-.05.41-.17.56-.36l8.24-9.98c.32-.38.37-.79.15-1.23Z"/>
  <path d="M3.82,13.18H1.15c-.47,0-.81-.21-1.01-.62-.21-.41-.18-.81.08-1.18L7.75.48c.15-.21.34-.35.57-.42.23-.08.45-.07.68.03.23.1.4.25.53.45s.18.43.15.67l-.85,6.73h3.38c.49,0,.84.22,1.05.67.21.44.16.85-.15,1.23l-8.24,9.98c-.14.19-.33.31-.56.36-.23.05-.45.02-.69-.09-.23-.11-.4-.26-.5-.47-.1-.2-.14-.42-.11-.64l.81-5.78Z"/>
</svg>