<svg viewBox="0 0 24 24" fill="currentColor">
    <path d="M21.2,21.2c-.14.14-.32.22-.53.22s-.38-.07-.53-.22L2.8,3.85c-.14-.14-.21-.31-.21-.52,0-.21.07-.39.21-.53.14-.14.32-.22.53-.22s.38.07.53.22l17.35,17.35c.14.14.21.31.21.52,0,.21-.07.39-.21.53Z"/>
    <path d="M6.77,6.82c-.29.38-.56.77-.8,1.17-.98,1.6-1.46,3.24-1.46,4.93,0,2.09.73,3.87,2.18,5.32,1.45,1.45,3.23,2.18,5.32,2.18s3.87-.73,5.32-2.18c.17-.17.33-.35.49-.53l-1.09-1.14c-.4.49-.87.91-1.42,1.26.07-.14.13-.28.16-.42.03-.14.05-.29.05-.44,0-.46-.09-.9-.26-1.31-.17-.41-.43-.78-.76-1.11l-2.48-2.43-2.47,2.43c-.33.33-.59.7-.76,1.11-.18.41-.27.84-.27,1.31,0,.15.02.3.05.44.03.14.09.28.16.42-.84-.53-1.5-1.23-1.99-2.1-.48-.87-.72-1.81-.72-2.81,0-1.25.35-2.5,1.04-3.75.24-.44.53-.87.84-1.29l-1.11-1.05ZM12.18,8.67c.19.16.4.3.64.37.38.11.78.17,1.2.17.38,0,.76-.05,1.12-.16.37-.11.72-.27,1.05-.49.58.58,1.03,1.25,1.34,1.99.31.74.46,1.53.46,2.36,0,.4-.04.78-.11,1.16v.02c-.06.41.23.8.64.85.41.06.8-.23.85-.65v-.02c.08-.45.12-.91.11-1.39,0-1.02-.21-2.05-.62-2.99-.51-1.18-1.26-2.16-2.25-2.94-.16-.12-.33-.17-.51-.15-.18.02-.34.1-.47.24-.23.21-.49.38-.76.49-.28.12-.56.17-.86.17-.68,0-1.26-.23-1.76-.69-.5-.46-.75-.99-.75-1.6v-.85c0-.39-.18-.68-.53-.87-.35-.19-.69-.17-1.01.07-.27.19-.53.39-.78.59h-.01c-.18.11-.3.27-.36.47s-.03.4.07.58c.1.18.26.3.47.35.21.05.42.03.59-.07.02-.02.04-.03.06-.05.05.42.11.83.3,1.17.24.42,1.33,1.39,1.86,1.85ZM10.15,16.24c.1-.23.24-.44.43-.62l1.42-1.4,1.42,1.4c.18.18.33.39.42.61.1.23.15.47.15.74,0,.53-.2.99-.59,1.38-.39.38-.86.58-1.41.58s-1.02-.19-1.41-.58c-.39-.38-.59-.84-.59-1.38,0-.25.05-.49.15-.72Z"/>
</svg>