<svg viewBox="0 0 24 24" fill="currentColor">
    <path d="M12.19,8.29c.44-.36.96-.54,1.56-.54.7,0,1.29.24,1.77.73s.73,1.08.73,1.77c0,.6-.18,1.12-.53,1.56l-3.53-3.52ZM9.65,5.41c0-.42.33-.75.75-.75h9.95c.5,0,.92.18,1.28.53.35.35.53.78.53,1.28v7.58c0,.5-.18.92-.53,1.28-.35.35-.78.53-1.28.53,0,0-1.38.08-1.5-1.5,0-.5.18-.92.53-1.28.35-.35.78-.53,1.28-.53v-4.58c-.5,0-.92-.18-1.28-.53-.35-.35-.53-.78-.53-1.28h-8.45c-.41,0-.75-.33-.75-.75h0ZM8.12,7.43c-.35.35-.78.53-1.28.53v4.58c.5,0,.92.18,1.28.53.35.35.53.78.53,1.28h5.74l1.42,1.5H7.15c-.5,0-.92-.18-1.28-.53s-.53-.78-.53-1.28v-7.58c0-.5.18-.92.53-1.28M18.42,19.35H3.65c-.5,0-.92-.18-1.28-.53-.35-.35-.53-.78-.53-1.28v-9.15c0-.21.07-.39.22-.53.14-.14.32-.22.53-.22s.39.07.53.22c.14.14.22.32.22.53v9.15c0,.08.03.15.1.21.06.06.13.1.21.1h14.77c.21,0,.39.07.53.22.14.14.22.32.22.53s-.07.39-.22.53c-.14.14-.32.22-.53.22ZM7.15,14.35h-.31V6.15h.31c-.08,0-.16.03-.22.09s-.09.13-.09.22v7.58c0,.08.03.16.09.22.06.06.13.09.22.09Z"/>
    <path d="M21.2,21.2c-.14.14-.32.22-.53.22s-.38-.07-.53-.22L2.8,3.85c-.14-.14-.21-.31-.21-.52,0-.21.07-.39.21-.53.14-.14.32-.22.53-.22s.38.07.53.22l17.35,17.35c.14.14.21.31.21.52,0,.21-.07.39-.21.53Z"/>
</svg>