<svg viewBox="0 0 24 24" fill="currentColor">
    <path d="M18.04,2.5s.45-.06.93.39c0,0,.32.22.8.32s.55.19.55.19c0,0,.06.13-.06.13h-.29s-.01.01,0,.02l.23.08s.13.03.1.13-.45.06-.45.06c0,0-.71.03-.9.06s-.45.13-.45.13c0,0-.29.16,0,.48s.61.55.61.55c0,0,.93.58,1.12,1.38s.16,1.25-.26,2.09-1.35,1.51-1.64,1.64-.48.29-.48.29c0,0-.13.06-.13.35s.13,1.28-.61,1.96-1.86.8-1.86.8c0,0-.8.1-1.28.06,0,0-.19,0-.26.13s-.13.29-.42.42-.48.45-.48.45l-.19.28s.01.1.06.09l3.12-1.01s.55-.16.84.13l.87,1.32s.13.16.03.26-.39-.06-.39-.06c0,0-.42-.35-.51-.48s-.16-.1-.16-.1c0,0-.1.06-.03.19s.03.26.03.26c0,0-.1.1-.16.03s-.22-.16-.26-.35-.03-.22-.03-.22c0,0,0-.16-.22-.13s-2.89.87-2.89.87c0,0-.26.06-.48.22s-.42.13-.58.03-.26-.39-.19-.61.16-.64.29-.87.22-.32.22-.32c0,0,.1-.13.03-.19s-.29.06-.29.06l-.67.26-1.54,1.16s-.1.03-.13.16-.19.55-.58.71-.55.45-.55.45l-1.99,2.73s-.22.51-.8,1c0,0-.42.42-.55.8s-.29.19-.29.19c0,0-.19-.22-.03-.8s.35-.64.35-.64c0,0,.1-.06.06-.13s-.16,0-.16,0c0,0-.19.06-.22-.03s-.03-.29.13-.42.32-.32.77-.39,1.19-1.41,1.19-1.41l1.06-1.51s.1-.1.13-.29.13-.61.58-.77,1.48-1.12,1.48-1.12c0,0,.35-.32.39-.45s.13-.19-.06-.22-1.41-.32-2.02-.64-.61-.35-.61-.35c0,0-.13-.1-.45-.03s-.64.06-.93.19-.71.35-.71.35c0,0-.19.19-.32.13s-.06-.51-.06-.51c0,0,.03-.19.1-.32s-.03-.16-.03-.16c0,0-.06-.06-.42.32s-.42.39-.55.29-.03-.55-.03-.55c0,0,.06-.29.13-.39s.03-.19.03-.19c0,0-.03-.06-.26.03s-.45.22-.45.22c0,0-.13.06-.19-.03s.1-.51.1-.51c0,0,.35-1.03,1.41-1.41s1.35-.06,1.35-.06c0,0,.1.06.19.03s.06-.06.03-.13-.03-.19.03-.22.42-.03.42-.03c0,0,1.28.13,2.12-.29s2.38-1.09,2.38-1.09c0,0,1.83-.87,3.69-.03,0,0,.93.51,1.12.64,0,0,.19.19.42.1s.39-.1.39-.1c0,0,.19,0,.32.03s.45.13.67.03.93-.35,1.03-1.03.26-1.03-1.12-2.06c0,0-.93-.64-.93-1.61s.42-1.25.42-1.25c0,0,.16-.13.32-.13Z"/>
</svg>