<svg viewBox="0 0 24 24" fill="currentColor">
    <path d="M12,21.5c-1.32,0-2.55-.25-3.71-.75s-2.16-1.18-3.01-2.03-1.53-1.85-2.03-3.01-.75-2.4-.75-3.71.25-2.53.75-3.7,1.18-2.18,2.03-3.03,1.85-1.53,3.01-2.03,2.4-.75,3.71-.75,2.53.25,3.7.75,2.18,1.18,3.03,2.03,1.53,1.86,2.03,3.03.75,2.4.75,3.7-.25,2.55-.75,3.71-1.18,2.16-2.03,3.01-1.86,1.53-3.03,2.03-2.4.75-3.7.75ZM9.57,15.35c.28.97.61,1.83.98,2.59.37.76.85,1.5,1.45,2.21l1.13-.13c1.33-.13,2.58-.62,3.73-1.45s2.01-1.91,2.58-3.23l.38-.95c.12-.32.2-.69.26-1.13s.09-.86.09-1.28-.03-.84-.09-1.28-.15-.81-.26-1.13l-.38-.95c-.58-1.35-1.43-2.43-2.54-3.23s-2.36-1.29-3.76-1.48l-1.13-.09c-.55.75-1.02,1.38-1.41,2.18s-.73,1.66-1.01,2.61l-.23.95c-.08.4-.14.8-.18,1.19s-.05.8-.05,1.21.02.82.05,1.21.09.79.18,1.19l.23.95Z"/>
    <path d="M12,14.83v-1.3c.84,0,1.53-.69,1.53-1.53s-.69-1.53-1.53-1.53v-1.3c1.56,0,2.83,1.27,2.83,2.83s-1.27,2.83-2.83,2.83Z"/>
    <path d="M12,18.02v-1.3c2.61,0,4.73-2.12,4.73-4.72s-2.12-4.73-4.73-4.73v-1.3c3.32,0,6.02,2.7,6.02,6.02s-2.7,6.02-6.02,6.02Z"/>
</svg>