<?xml version="1.0" encoding="UTF-8"?>
<svg id="Layer_1" xmlns="http://www.w3.org/2000/svg" version="1.1" viewBox="0 0 48 48">
  <!-- Generator: Adobe Illustrator 29.5.1, SVG Export Plug-In . SVG Version: 2.1.0 Build 141)  -->
  <defs>
    <style>
      .st0 {
        fill: #fff;
      }

      .st1 {
        fill: #0f9493;
      }
    </style>
  </defs>
  <circle class="st1" cx="24" cy="24" r="24"/>
  <path class="st0" d="M24.16,28.53c13.09-.19,12.8-2.68,12.8-2.68h1.14c.08,4.63-10.66,4.46-10.66,4.46v7.83h-6.84v-7.31s0-.53,0-.53c0,0-10.74.17-10.66-4.46h1.14s-.29,2.49,12.8,2.68h.27Z"/>
  <path class="st0" d="M11.92,12.9v4.32s8.59,0,8.59,0v3.54h0s-9.69.09-10.61,4.04h1.7s-.46-1.52,9-1.47h0s0,2.53,0,2.53h6.8v-2.48c9.46-.05,9,1.47,9,1.47h1.7c-.92-3.95-10.61-4.04-10.61-4.04v-3.54h8.59v-4.36H11.92Z"/>
</svg>